<svg xmlns="http://www.w3.org/2000/svg" width="115" height="115" fill="none"><path fill="url(#a)" d="M53.815 41.723C41.189 41.883 0 43.478 0 57.192 0 71.934 47.563 72.68 57.1 72.68c9.534 0 57.097-.746 57.097-15.488 0-6.538-8.582-9.532-15.036-11.214-7.04-1.836-16.549-3.167-27.048-3.817.172 2.792.293 5.661.367 8.579 19.185 1.252 29.332 4.493 32.452 6.463-4.225 2.734-20.515 6.931-47.833 6.931-27.367 0-43.665-4.212-47.857-6.946 3.98-2.615 18.889-6.59 44.681-6.92a4.267 4.267 0 0 0 4.212-4.328 4.27 4.27 0 0 0-4.32-4.217Z"/><path fill="url(#b)" d="M41.635 57.192c0 9.549.745 57.189 15.464 57.189 6.524 0 9.513-8.589 11.193-15.051 1.834-7.055 3.163-16.588 3.814-27.112-3.162.19-6.086.304-8.565.371-1.25 19.222-4.487 29.388-6.454 32.514-2.73-4.234-6.921-20.55-6.921-47.911 0-27.39 4.2-43.712 6.929-47.925 2.62 4.088 6.703 19.67 6.927 45.773a4.27 4.27 0 0 0 4.265 4.237h.038a4.271 4.271 0 0 0 4.229-4.31c-.12-13.958-1.37-27.038-3.524-36.826C66.308 5.764 62.517 0 57.1 0 42.38 0 41.634 47.64 41.634 57.192Z"/><defs><linearGradient id="a" x1="0" x2="114.197" y1="57.19" y2="57.19" gradientUnits="userSpaceOnUse"><stop stop-color="#45C3F3"/><stop offset=".5" stop-color="#1671C2"/><stop offset=".96" stop-color="#2056AE"/><stop offset="1" stop-color="#2056AE"/></linearGradient><linearGradient id="b" x1="57.094" x2="57.094" y1="114.382" y2="0" gradientUnits="userSpaceOnUse"><stop stop-color="#2056AE"/><stop offset=".25" stop-color="#2056AE"/><stop offset=".28" stop-color="#2056AE"/><stop offset=".625" stop-color="#A32B9B"/><stop offset="1" stop-color="#ED1443"/></linearGradient></defs></svg>