<?xml version="1.0" encoding="UTF-8"?><svg id="a" xmlns="http://www.w3.org/2000/svg" xmlns:xlink="http://www.w3.org/1999/xlink" viewBox="0 0 114.197 114.381"><defs><style>.d{fill:url(#c);}.e{fill:url(#b);}</style><linearGradient id="b" x1="5.888" y1="58.8" x2="108.309" y2="58.8" gradientTransform="translate(0 116) scale(1 -1)" gradientUnits="userSpaceOnUse"><stop offset="0" stop-color="#45c3f3"/><stop offset=".5" stop-color="#1671c2"/><stop offset=".96" stop-color="#2056ae"/><stop offset="1" stop-color="#2056ae"/></linearGradient><linearGradient id="c" x1="57.095" y1="7.516" x2="57.095" y2="110.103" gradientTransform="translate(0 116) scale(1 -1)" gradientUnits="userSpaceOnUse"><stop offset="0" stop-color="#2056ae"/><stop offset=".25" stop-color="#2056ae"/><stop offset=".28" stop-color="#2056ae"/><stop offset=".625" stop-color="#a32b9b"/><stop offset="1" stop-color="#ed1443"/></linearGradient></defs><path class="e" d="M54.154,43.318c-11.324.144-48.266,1.574-48.266,13.874,0,13.222,42.658,13.891,51.212,13.891s51.209-.669,51.209-13.891c0-5.864-7.697-8.549-13.486-10.058-6.314-1.647-14.842-2.84-24.259-3.423.154,2.504.263,5.077.329,7.694,17.207,1.123,26.307,4.03,29.106,5.797-3.789,2.452-18.4,6.216-42.901,6.216s-39.162-3.778-42.922-6.23c3.57-2.345,16.941-5.91,40.074-6.206,2.113-.027,3.805-1.762,3.778-3.876,0-.002,0-.004,0-.006-.026-2.114-1.76-3.807-3.875-3.782Z"/><path class="d" d="M43.23,57.192c0,8.564.668,51.292,13.869,51.292,5.851,0,8.532-7.703,10.039-13.499,1.645-6.327,2.837-14.877,3.421-24.316-2.836.17-5.458.273-7.682.333-1.121,17.24-4.024,26.358-5.788,29.161-2.448-3.797-6.207-18.431-6.207-42.97s3.767-39.204,6.214-42.983c2.35,3.666,6.012,17.642,6.213,41.053.016,2.102,1.723,3.798,3.825,3.8h.034c2.115-.021,3.812-1.751,3.793-3.866-.108-12.519-1.229-24.25-3.161-33.029-2.441-11.101-5.841-16.27-10.7-16.27-13.202,0-13.871,42.727-13.871,51.294h0Z"/></svg>